<svg xmlns="http://www.w3.org/2000/svg" viewBox="0 0 180 180"><rect width="180" height="180" fill="#121212"/> <path d="M90 45a.75.75 0 01.75.75v1.5a.75.75 0 01-1.5 0V45.75A.75.75 0 0190 45zM63.47 63.47a.75.75 0 011.06 0l1.06 1.06a.75.75 0 01-1.06 1.06L63.47 64.53a.75.75 0 010-1.06zM45.75 90a.75.75 0 010 1.5H44.25a.75.75 0 010-1.5h1.5zM63.47 116.53a.75.75 0 010-1.06l1.06-1.06a.75.75 0 011.06 1.06l-1.06 1.06a.75.75 0 01-1.06 0zM90 134.25a.75.75 0 01-.75.75v1.5a.75.75 0 011.5 0v-1.5a.75.75 0 01-.75-.75zM116.53 116.53a.75.75 0 011.06 0l1.06 1.06a.75.75 0 11-1.06 1.06l-1.06-1.06a.75.75 0 010-1.06zM134.25 90a.75.75 0 010 1.5h-1.5a.75.75 0 010-1.5h1.5zM116.53 63.47a.75.75 0 010 1.06l-1.06 1.06a.75.75 0 01-1.06-1.06l1.06-1.06a.75.75 0 011.06 0zM90 75a15 15 0 100 30 15 15 0 000-30z" fill="orange"/></svg>