<svg xmlns="http://www.w3.org/2000/svg" viewBox="0 0 24 24" fill="orange"><path d="M12 3.5a.75.75 0 01.75.75v1.5a.75.75 0 01-1.5 0V4.25a.75.75 0 01.75-.75zM8.47 8.47a.75.75 0 011.06 0l1.06 1.06a.75.75 0 01-1.06 1.06L8.47 9.53a.75.75 0 010-1.06zM4.25 12a.75.75 0 010 1.5H2.75a.75.75 0 010-1.5h1.5zM8.47 15.53a.75.75 0 010-1.06l1.06-1.06a.75.75 0 011.06 1.06l-1.06 1.06a.75.75 0 01-1.06 0zM12 19.25a.75.75 0 01-.75.75v1.5a.75.75 0 011.5 0v-1.5a.75.75 0 01-.75-.75zM15.53 15.53a.75.75 0 011.06 0l1.06 1.06a.75.75 0 11-1.06 1.06l-1.06-1.06a.75.75 0 010-1.06zM19.75 12a.75.75 0 010 1.5h-1.5a.75.75 0 010-1.5h1.5zM15.53 8.47a.75.75 0 010 1.06l-1.06 1.06a.75.75 0 01-1.06-1.06l1.06-1.06a.75.75 0 011.06 0zM12 7.5a4.5 4.5 0 100 9 4.5 4.5 0 000-9z"/></svg>