<svg xmlns="http://www.w3.org/2000/svg" viewBox="0 0 1200 630"><rect width="1200" height="630" fill="#121212"/><text x="50%" y="50%" dominant-baseline="middle" text-anchor="middle" font-family="sans-serif" font-size="80" fill="white">Meteoro</text><path d="M600 200a.75.75 0 01.75.75v1.5a.75.75 0 01-1.5 0V200.75A.75.75 0 01600 200zM423.47 423.47a.75.75 0 011.06 0l1.06 1.06a.75.75 0 01-1.06 1.06L423.47 424.53a.75.75 0 010-1.06zM245.75 600a.75.75 0 010 1.5H244.25a.75.75 0 010-1.5h1.5zM423.47 776.53a.75.75 0 010-1.06l1.06-1.06a.75.75 0 011.06 1.06l-1.06 1.06a.75.75 0 01-1.06 0zM600 954.25a.75.75 0 01-.75.75v1.5a.75.75 0 011.5 0v-1.5a.75.75 0 01-.75-.75zM776.53 776.53a.75.75 0 011.06 0l1.06 1.06a.75.75 0 11-1.06 1.06l-1.06-1.06a.75.75 0 010-1.06zM954.25 600a.75.75 0 010 1.5h-1.5a.75.75 0 010-1.5h1.5zM776.53 423.47a.75.75 0 010 1.06l-1.06 1.06a.75.75 0 01-1.06-1.06l1.06-1.06a.75.75 0 011.06 0zM600 450a150 150 0 100 300 150 150 0 000-300z" fill="orange"/></svg>